# AST/ASF file generated using VICON BodyLanguage
# -----------------------------------------------
:version 1.10
:name VICON
:units
  mass 1.0
  length 0.45
  angle deg
:documentation
   .ast/.asf automatically generated from VICON data using
   VICON BodyBuilder and BodyLanguage model FoxedUp or BRILLIANT.MOD
:root
   order TX TY TZ RX RY RZ
   axis XYZ
   position 0 0 0  
   orientation 0 0 0 
:bonedata
  begin
     id 1 
     name lhipjoint
     direction 0.54267 -0.795011 0.271047 
     length 2.39899 
     axis 0 0 0  XYZ
  end
  begin
     id 2 
     name lfemur
     direction 0.34202 -0.939693 0  
     length 7.49701  
     axis 0 0 20  XYZ
    dof rx ry rz
    limits (-160.0 20.0)
           (-70.0 70.0)
           (-60.0 70.0)
  end
  begin
     id 3 
     name ltibia
     direction 0.34202 -0.939693 0   
     length 8.1668   
     axis 0 0 20   XYZ
    dof rx
    limits (-10.0 170.0)
  end
  begin
     id 4 
     name lfoot
     direction 0.0736283 -0.202292 0.976554   
     length 2.13544   
     axis -90 7.62852e-016 20   XYZ
    dof rx rz
    limits (-45.0 90.0)
           (-70.0 20.0)
  end
  begin
     id 5 
     name ltoes
     direction 1.53557e-011 -4.22024e-011 1   
     length 1.07411   
     axis -90 7.62852e-016 20   XYZ
    dof rx
    limits (-90.0 20.0)
  end
  begin
     id 6 
     name rhipjoint
     direction -0.538061 -0.797813 0.272002   
     length 2.39057  
     axis 0 0 0  XYZ 
  end
  begin
     id 7 
     name rfemur
     direction -0.34202 -0.939693 0   
     length 7.50152   
     axis 0 0 -20   XYZ
    dof rx ry rz
    limits (-160.0 20.0)
           (-70.0 70.0)
           (-70.0 60.0)
  end
  begin
     id 8 
     name rtibia
     direction -0.34202 -0.939693 0   
     length 8.05793   
     axis 0 0 -20   XYZ
    dof rx
    limits (-10.0 170.0)
 end
 begin
     id 9 
     name rfoot
     direction -0.0765195 -0.210236 0.974652   
     length 2.28698  
     axis -90 -7.62852e-016 -20   XYZ
    dof rx rz
    limits (-45.0 90.0)
           (-20.0 70.0)
  end
  begin
     id 10 
     name rtoes
     direction -1.53542e-011 -4.21847e-011 1   
     length 1.14762   
     axis -90 -7.62852e-016 -20   XYZ
    dof rx
    limits (-90.0 20.0)
  end
  begin
     id 11 
     name lowerback
     direction -0.0217239 0.996592 -0.0795765   
     length 2.08176   
     axis 0 0 0   XYZ
    dof rx ry rz
    limits (-20.0 45.0)
           (-30.0 30.0)
           (-30.0 30.0)
  end
  begin
     id 12 
     name upperback
     direction -0.00563773 0.999651 -0.0258155   
     length 2.08898   
     axis 0 0 0   XYZ
    dof rx ry rz
    limits (-20.0 45.0)
           (-30.0 30.0)
           (-30.0 30.0)
  end
  begin
     id 13 
     name thorax
     direction 0.0032706 0.999923 0.0119599   
     length 2.0968   
     axis 0 0 0   XYZ
    dof rx ry rz
    limits (-20.0 45.0)
           (-30.0 30.0)
           (-30.0 30.0)
  end
  begin
     id 14 
     name lowerneck
     direction -0.0285886 0.99568 0.0883427   
     length 1.81272   
     axis 0 0 0   XYZ
    dof rx ry rz
    limits (-20.0 45.0)
           (-30.0 30.0)
           (-30.0 30.0)
  end
  begin
     id 15 
     name upperneck
     direction 0.0807535 0.97985 -0.18268   
     length 1.82518   
     axis 0 0 0   XYZ
    dof rx ry rz
    limits (-20.0 45.0)
           (-30.0 30.0)
           (-30.0 30.0)
  end
  begin
     id 16
     name head
     direction 0.0236605 0.997053 -0.0729767  
     length 1.84443  
     axis 0 0 0   XYZ
    dof rx ry rz
    limits (-20.0 45.0)
           (-30.0 30.0)
           (-30.0 30.0)
  end
  begin
     id 17 
     name lclavicle
     direction 0.918986 0.39378 -0.0200683  
     length 3.27822  
     axis 0 0 0   XYZ
    dof ry rz
    limits (-20.0 10.0)
           (0.0 20.0)
  end
  begin
     id 18 
     name lhumerus
     direction 1 -4.4897e-011 2.09544e-027   
     length 5.5568   
     axis 180 -30 -90   XYZ
    dof rx ry rz
    limits (-60.0 90.0)
           (-90.0 90.0)
           (-90.0 90.0)
  end
  begin
     id 19
     name lradius
     direction 1 -4.48957e-011 -1.27696e-026   
     length 3.63979   
     axis 180 -30 -90   XYZ
    dof rx
    limits (-10.0 170.0)
  end
  begin
     id 20
     name lwrist
     direction 1 -4.49001e-011 -1.49001e-026   
     length 1.8199   
     axis 9.0955e-015 90 90   XYZ
    dof ry
    limits (-180.0 0.0)
 end
  begin
     id 21 
     name lhand
     direction 1 -4.48709e-011 -2.9758e-026   
     length 0.569419   
     axis 1.90115e-014 90 90   XYZ
    dof rx rz
    limits (-90.0 90.0)
           (-45.0 45.0)
  end
  begin
     id 22 
     name lfingers
     direction 1 -4.49175e-011 -5.96505e-026   
     length 0.45908   
     axis 3.80223e-014 90 90   XYZ
    dof rx
    limits (0.0 90.0)
  end
  begin
     id 23
     name lthumb
     direction 0.707107 -6.34864e-011 0.707107   
     length 0.65915   
     axis -90 45 -3.84942e-014   XYZ
    dof rx rz
    limits (-45.0 45.0)
           (-45.0 45.0)
  end
  begin
     id 24 
     name rclavicle
     direction -0.911913 0.396426 -0.106115   
     length 3.46301  
     axis 0 0 0   XYZ 
    dof ry rz
    limits (-10.0 20.0)
           (-20.0 0.0)
  end
  begin
     id 25 
     name rhumerus
     direction -1 -4.48965e-011 7.78516e-028  
     length 5.34339   
     axis 180 30 90   XYZ
    dof rx ry rz
    limits (-90.0 60.0)
           (-90.0 90.0)
           (-90.0 90.0)
  end
  begin
     id 26 
     name rradius
     direction -1 -4.48948e-011 -5.79823e-027   
     length 3.65101   
     axis 180 30 90   XYZ
    dof rx
    limits (-10.0 170.0)
  end
  begin
     id 27 
     name rwrist
     direction -1 -4.48995e-011 -1.48996e-026   
     length 1.8255   
     axis 9.0955e-015 -90 -90   XYZ
    dof ry
    limits (-180.0 0.0)
  end
  begin
     id 28
     name rhand
     direction -1 -4.48957e-011 -2.97937e-026   
     length 0.694249   
     axis 1.90115e-014 -90 -90   XYZ
    dof rx rz
    limits (-90.0 90.0)
           (-45.0 45.0)
  end
  begin
     id 29
     name rfingers
     direction -1 -4.4898e-011 -5.95943e-026   
     length 0.559721   
     axis 3.80223e-014 -90 -90   XYZ
    dof rx
    limits (0.0 90.0)
  end
  begin
     id 30
     name rthumb
     direction -0.707107 -6.34969e-011 0.707107   
     length 0.803651   
     axis -90 -45 3.84942e-014   XYZ
    dof rx rz
    limits (-45.0 45.0)
           (-45.0 45.0)
  end
:hierarchy
  begin
    root lhipjoint rhipjoint lowerback
    lhipjoint lfemur
    lfemur ltibia
    ltibia lfoot
    lfoot ltoes
    rhipjoint rfemur
    rfemur rtibia
    rtibia rfoot
    rfoot rtoes
    lowerback upperback
    upperback thorax
    thorax lowerneck lclavicle rclavicle
    lowerneck upperneck
    upperneck head
    lclavicle lhumerus
    lhumerus lradius
    lradius lwrist
    lwrist lhand lthumb
    lhand lfingers
    rclavicle rhumerus
    rhumerus rradius
    rradius rwrist
    rwrist rhand rthumb
    rhand rfingers
  end

#!OML:ASF H:\Terrain\Walking\May29\JustinRory\rory.ASF
:FULLY-SPECIFIED
:DEGREES
508
root 10.7697 18.4866 -0.721062 -4.10775 -22.5618 4.3691
lowerback 0.870221 -0.142299 -4.61782
upperback 1.48505 -0.200569 0.0497804
thorax 1.05457 -0.151269 2.63957
lowerneck -9.67038 -3.98573 -3.68004
upperneck 15.127 -4.95871 0.555316
head 6.29277 -2.57885 0.366242
rclavicle -5.81445e-015 2.78299e-015
rhumerus -29.0779 1.95001 -65.6115
rradius 93.596
rwrist -22.7622
rhand 5.72472 33.5418
rfingers 7.12502
rthumb 31.061 6.15198
lclavicle -5.81445e-015 2.78299e-015
lhumerus -27.9269 -6.98101 73.2664
lradius 100.744
lwrist 30.1009
lhand -1.17561 23.6738
lfingers 7.12502
lthumb 24.4639 52.1315
rfemur -15.7939 7.81403 11.3854
rtibia 27.2748
rfoot -4.2131 -5.41016
rtoes 4.44731
lfemur -3.27746 -5.49583 -16.634
ltibia 38.7364
lfoot -2.55103 -11.617
ltoes -1.31923
509
root 10.8199 18.4848 -0.735572 -4.21092 -23.047 4.55642
lowerback 0.765105 -0.139811 -4.90309
upperback 1.41066 -0.193622 0.0382651
thorax 1.03815 -0.148979 2.78765
lowerneck -9.46484 -3.87037 -3.73029
upperneck 14.8652 -4.8026 0.572508
head 6.17256 -2.50449 0.400151
rclavicle 2.94015e-014 -3.97569e-015
rhumerus -28.4649 2.37743 -65.4099
rradius 94.8492
rwrist -24.4917
rhand 5.25964 33.0211
rfingers 7.12502
rthumb 30.6176 5.54743
lclavicle 2.94015e-014 -3.97569e-015
lhumerus -27.6372 -6.26949 72.6284
lradius 101.051
lwrist 30.9933
lhand -0.0703685 24.1175
lfingers 7.12502
lthumb 25.523 52.4279
rfemur -16.0334 8.13085 11.0538
rtibia 27.3581
rfoot -4.19439 -5.15166
rtoes 5.0021
lfemur -2.42549 -6.34241 -17.006
ltibia 37.3496
lfoot -3.14536 -11.7661
ltoes -1.82517
510
root 10.8841 18.4746 -0.74795 -4.24111 -23.6229 4.75472
lowerback 0.455949 -0.0443713 -4.89141
upperback 1.39951 -0.047859 -0.110109
thorax 1.18759 -0.0785002 2.6283
lowerneck -9.64876 -3.94033 -3.70078
upperneck 15.1519 -4.88671 0.499377
head 6.29459 -2.55042 0.358195
rclavicle -2.46338e-014 4.37326e-015
rhumerus -27.8136 2.45899 -65.3095
rradius 96.0151
rwrist -25.8119
rhand 3.17323 31.8547
rfingers 7.12502
rthumb 28.6261 4.02725
lclavicle -2.46338e-014 4.37326e-015
lhumerus -27.0871 -5.74643 71.9453
lradius 101.162
lwrist 31.7273
lhand 0.922646 23.4789
lfingers 7.12502
lthumb 26.4738 51.6496
rfemur -16.4338 8.02471 10.675
rtibia 27.456
rfoot -4.09679 -4.38971
rtoes 4.63863
lfemur -1.67374 -6.79007 -17.4043
ltibia 35.8981
lfoot -3.38557 -12.119
ltoes -0.5506
511
root 10.9581 18.467 -0.731598 -4.53755 -24.7786 4.57969
lowerback 0.155715 0.206985 -4.32823
upperback 1.58625 0.306022 -0.140648
thorax 1.52094 0.0947265 2.28476
lowerneck -9.78504 -4.03454 -3.77939
upperneck 15.5493 -4.99382 0.44881
head 6.44808 -2.61305 0.338186
rclavicle -5.94894e-014 1.98785e-015
rhumerus -27.0509 2.61848 -65.1495
rradius 97.0019
rwrist -27.1249
rhand 1.40207 30.4269
rfingers 7.12502
rthumb 26.9326 2.32605
lclavicle -5.94894e-014 1.98785e-015
lhumerus -26.3576 -5.00663 71.3775
lradius 101.174
lwrist 32.6207
lhand 1.10661 22.6458
lfingers 7.12502
lthumb 26.6499 50.79
rfemur -16.5489 8.1567 10.7243
rtibia 27.6371
rfoot -4.12751 -3.19237
rtoes 3.96112
lfemur -0.294454 -6.98563 -17.6644
ltibia 34.3763
lfoot -4.1848 -12.2895
ltoes -1.14987
512
root 11.0298 18.4491 -0.783583 -4.39735 -24.9891 4.78157
lowerback 0.23126 0.0946601 -4.75235
upperback 1.42617 0.150647 -0.137069
thorax 1.32499 0.0187472 2.52419
lowerneck -9.88053 -4.0113 -3.84825
upperneck 15.6607 -4.96149 0.525729
head 6.50334 -2.59576 0.373251
rclavicle -4.60746e-014 1.63003e-014
rhumerus -26.086 2.65826 -65.0111
rradius 97.8563
rwrist -28.6647
rhand 0.205161 29.3916
rfingers 7.12502
rthumb 25.7869 1.11919
lclavicle -4.60746e-014 1.63003e-014
lhumerus -25.5896 -4.03923 70.7039
lradius 101.143
lwrist 33.5261
lhand 0.869007 22.4089
lfingers 7.12502
lthumb 26.4225 50.5874
rfemur -17.3214 7.82355 10.3283
rtibia 27.8928
rfoot -3.91537 -2.53849
rtoes 3.76161
lfemur -0.0271703 -7.53123 -17.9367
ltibia 33.0346
lfoot -4.47011 -12.997
ltoes 1.55158
513
root 11.1057 18.4249 -0.804135 -4.7627 -25.6532 5.20629
lowerback 0.260791 0.192759 -5.0647
upperback 1.495 0.284281 -0.27768
thorax 1.36877 0.0801059 2.55565
lowerneck -9.96154 -4.01451 -3.80518
upperneck 15.4617 -4.97924 0.599837
head 6.45482 -2.59402 0.38874
rclavicle -9.6659e-015 -4.77083e-015
rhumerus -25.0557 2.40049 -64.8201
rradius 98.55
rwrist -30.1758
rhand -0.717643 29.0393
rfingers 7.12502
rthumb 24.9028 0.641608
lclavicle -9.6659e-015 -4.77083e-015
lhumerus -24.6515 -3.15923 69.9458
lradius 101.051
lwrist 34.0531
lhand 1.48876 22.9856
lfingers 7.12502
lthumb 27.0156 51.0736
rfemur -17.6762 7.73157 9.74586
rtibia 28.1218
rfoot -3.66741 -1.69927
rtoes 2.32189
lfemur 0.844251 -8.05071 -18.6701
ltibia 31.8313
lfoot -5.33885 -13.427
ltoes 4.63338
514
root 11.1767 18.4052 -0.865256 -4.54973 -25.5323 5.20699
lowerback 0.47673 0.0518435 -5.30768
upperback 1.29716 0.0777775 -0.266606
thorax 1.06093 -0.0144096 2.70117
lowerneck -9.89255 -4.02834 -3.84191
upperneck 15.3117 -4.99809 0.627663
head 6.39723 -2.60257 0.404928
rclavicle -5.96975e-015 1.15295e-014
rhumerus -24.0481 2.2999 -64.4937
rradius 99.0551
rwrist -31.4368
rhand -2.2544 28.4653
rfingers 7.12502
rthumb 23.4294 -0.128337
lclavicle -5.96975e-015 1.15295e-014
lhumerus -23.7946 -2.46442 69.3423
lradius 100.918
lwrist 35.1672
lhand 1.50364 23.897
lfingers 7.12502
lthumb 27.0298 51.9828
rfemur -18.352 7.84678 9.5302
rtibia 28.419
rfoot -3.31024 -1.95117
rtoes 0.31508
lfemur 0.929227 -8.62416 -18.6686
ltibia 30.839
lfoot -5.92258 -14.1716
ltoes 4.48915
515
root 11.2475 18.3915 -0.913725 -4.56138 -25.8646 5.29578
lowerback 0.746511 0.0338 -5.41267
upperback 1.105 0.0305727 -0.370022
thorax 0.715776 -0.0259499 2.65326
lowerneck -9.91021 -3.93635 -3.75133
upperneck 15.5749 -4.89059 0.622311
head 6.47905 -2.548 0.394809
rclavicle -9.94576e-014 -6.75868e-015
rhumerus -23.1672 2.22385 -64.338
rradius 99.4967
rwrist -32.4863
rhand -2.41044 29.3046
rfingers 7.12502
rthumb 23.2797 0.691904
lclavicle -9.94576e-014 -6.75868e-015
lhumerus -23.0975 -1.98283 68.7372
lradius 100.789
lwrist 37.6485
lhand -0.156862 24.2511
lfingers 7.12502
lthumb 25.4401 52.5733
rfemur -18.8965 8.1848 9.26557
rtibia 28.6595
rfoot -2.8079 -1.99528
rtoes 1.43125
lfemur 1.31535 -8.58925 -18.8227
ltibia 29.8984
lfoot -6.22561 -14.8735
ltoes 5.48876
516
root 11.3263 18.3739 -0.949304 -4.95486 -26.4191 5.63976
lowerback 0.588519 -0.005788 -5.97439
upperback 1.38784 -0.00297326 -0.320283
thorax 1.10067 -0.0646665 3.01908
lowerneck -9.87257 -3.74698 -3.65534
upperneck 15.215 -4.62788 0.520619
head 6.34697 -2.42143 0.374547
rclavicle 7.30409e-014 -7.35503e-015
rhumerus -21.4766 2.08834 -63.9432
rradius 99.6514
rwrist -33.5525
rhand -3.01643 29.7473
rfingers 7.12502
rthumb 22.6982 1.06229
lclavicle 7.30409e-014 -7.35503e-015
lhumerus -21.807 -0.937945 68.2767
lradius 100.35
lwrist 40.2627
lhand -1.82861 24.0706
lfingers 7.12502
lthumb 23.8378 52.6115
rfemur -19.1779 8.35385 8.76648
rtibia 28.836
rfoot -2.46033 -1.50475
rtoes 1.34804
lfemur 2.01222 -8.52501 -19.4152
ltibia 29.0835
lfoot -6.30758 -15.4638
ltoes 9.65723
517
root 11.4114 18.3577 -0.9952 -5.11549 -26.5691 5.98667
lowerback 0.559825 -0.0729906 -6.46867
upperback 1.43397 -0.0881957 -0.357898
thorax 1.17511 -0.115866 3.25676
lowerneck -9.68653 -3.72078 -3.54301
upperneck 14.9748 -4.60588 0.458551
head 6.23364 -2.40884 0.344782
rclavicle -4.03657e-014 1.90833e-014
rhumerus -19.9275 1.54443 -63.5093
rradius 99.4822
rwrist -35.0662
rhand -4.11497 29.8518
rfingers 7.12502
rthumb 21.6436 1.04151
lclavicle -4.03657e-014 1.90833e-014
lhumerus -20.4157 -0.269941 67.8059
lradius 99.6334
lwrist 42.7141
lhand -2.77432 23.9407
lfingers 7.12502
lthumb 22.9305 52.5971
rfemur -19.596 8.11951 8.21003
rtibia 28.934
rfoot -2.34287 -0.933359
rtoes -2.35631
lfemur 2.35541 -8.88901 -20.0173
ltibia 28.2892
lfoot -6.56658 -15.6509
ltoes 12.2317
518
root 11.4952 18.3417 -1.04647 -5.14257 -26.7334 6.10714
lowerback 0.550709 -0.128799 -6.7391
upperback 1.50006 -0.158787 -0.39697
thorax 1.25761 -0.158359 3.36733
lowerneck -10.0999 -3.72817 -3.30979
upperneck 15.3643 -4.61316 0.283466
head 6.41898 -2.41364 0.238613
rclavicle 1.16693e-014 5.76476e-015
rhumerus -18.3915 0.955989 -63.2359
rradius 99.2388
rwrist -36.7787
rhand -5.89791 29.6674
rfingers 7.12502
rthumb 19.9305 0.669475
lclavicle 1.16693e-014 5.76476e-015
lhumerus -19.0261 0.494688 67.3755
lradius 98.8881
lwrist 45.1436
lhand -2.94891 24.0418
lfingers 7.12502
lthumb 22.763 52.7188
rfemur -20.0082 8.16415 7.86612
rtibia 28.9713
rfoot -2.18971 -0.69963
rtoes -4.23905
lfemur 2.64903 -9.1416 -20.3684
ltibia 27.4756
lfoot -7.12457 -15.6991
ltoes 9.06651
519
root 11.584 18.3251 -1.09697 -5.18887 -27.2629 5.81511
lowerback 0.768766 -0.0437043 -6.54453
upperback 1.57434 -0.0605913 -0.33913
thorax 1.20032 -0.107448 3.31885
lowerneck -10.0984 -3.72507 -3.1683
upperneck 15.3691 -4.62567 0.238638
head 6.41567 -2.41535 0.200384
rclavicle -2.76373e-014 -1.05356e-014
rhumerus -17.1112 0.612078 -62.9706
rradius 98.956
rwrist -38.2064
rhand -8.01019 29.4008
rfingers 7.12502
rthumb 17.899 0.204468
lclavicle -2.76373e-014 -1.05356e-014
lhumerus -17.7035 1.20276 67.03
lradius 98.1332
lwrist 47.5566
lhand -3.10327 24.1811
lfingers 7.12502
lthumb 22.6149 52.8763
rfemur -20.2925 8.7357 7.96694
rtibia 28.922
rfoot -1.74286 -0.669201
rtoes -3.03537
lfemur 3.08124 -8.80461 -20.2526
ltibia 26.7075
lfoot -7.87758 -15.8982
ltoes 0.294871
520
root 11.6795 18.3134 -1.14933 -5.37275 -27.8025 5.6978
lowerback 1.09702 0.0202603 -6.51262
upperback 1.55649 -0.00218539 -0.261896
thorax 0.991189 -0.07147 3.38114
lowerneck -9.44969 -3.65075 -3.26983
upperneck 14.9286 -4.54974 0.364274
head 6.16771 -2.37533 0.280667
rclavicle 1.71762e-014 -1.59028e-015
rhumerus -15.689 0.684559 -62.615
rradius 98.2996
rwrist -39.4737
rhand -10.6934 29.6936
rfingers 7.12502
rthumb 15.3159 0.280719
lclavicle 1.71762e-014 -1.59028e-015
lhumerus -16.4089 1.75833 66.7627
lradius 97.2386
lwrist 49.6733
lhand -3.43463 24.4758
lfingers 7.12502
lthumb 22.2968 53.2094
rfemur -20.5619 9.23205 7.90563
rtibia 28.7979
rfoot -1.11225 -0.687473
rtoes -0.41019
lfemur 3.49442 -8.37569 -20.3373
ltibia 25.9533
lfoot -8.81476 -15.8981
ltoes -1.55536
521
root 11.7738 18.3008 -1.20699 -5.65998 -28.153 5.99445
lowerback 1.32237 -0.00574056 -6.92663
upperback 1.52968 -0.0585569 -0.255004
thorax 0.845002 -0.098751 3.62089
lowerneck -9.28172 -3.55461 -3.50608
upperneck 14.9952 -4.41531 0.52021
head 6.16667 -2.31305 0.381855
rclavicle -4.23722e-014 1.15295e-014
rhumerus -13.927 1.10805 -62.171
rradius 97.3271
rwrist -40.4175
rhand -13.6635 30.4289
rfingers 7.12502
rthumb 12.4535 0.819952
lclavicle -4.23722e-014 1.15295e-014
lhumerus -14.9739 2.20421 66.5822
lradius 96.1333
lwrist 50.8924
lhand -3.87029 24.9125
lfingers 7.12502
lthumb 21.8785 53.6955
rfemur -20.8421 9.54912 7.41133
rtibia 28.6221
rfoot -0.566164 -0.792184
rtoes 1.52786
lfemur 3.81245 -8.05895 -20.8601
ltibia 25.2018
lfoot -9.6152 -15.6717
ltoes -0.339803
